<svg xmlns="http://www.w3.org/2000/svg" viewBox="0 0 980.48 456.75"><defs><style>.cls-1{fill:#43534d;}.cls-2{opacity:0.17;}.cls-10,.cls-3,.cls-4{fill:#fff;}.cls-4{font-size:15.75px;}.cls-10,.cls-16,.cls-4{font-family:Oswald-Regular, Oswald;}.cls-5{letter-spacing:0em;}.cls-6{fill:#463127;}.cls-7{letter-spacing:-0.02em;}.cls-8{letter-spacing:0em;}.cls-16,.cls-9{fill:#ac201c;}.cls-10{font-size:37.99px;}.cls-11{letter-spacing:0em;}.cls-12{letter-spacing:0em;}.cls-13{letter-spacing:0em;}.cls-14{letter-spacing:0em;}.cls-15{fill:#d1d1d3;}.cls-16{font-size:12.22px;}.cls-17{letter-spacing:0em;}.cls-18{letter-spacing:0em;}.cls-19{letter-spacing:0em;}.cls-20,.cls-21{fill:none;stroke-miterlimit:10;stroke-width:0.75px;}.cls-20{stroke:#aa0c32;}.cls-21{stroke:#e5e3e4;}.cls-22{fill:#ac731b;}</style></defs><title>Asset 1</title><g id="Layer_2" data-name="Layer 2"><g id="Layer_1-2" data-name="Layer 1"><ellipse class="cls-1" cx="90.5" cy="148.59" rx="90.5" ry="61"/><g class="cls-2"><path class="cls-3" d="M48.27,176.25,99,122c.66-.7-.4-1.77-1.06-1.06L47.21,175.19c-.66.7.4,1.77,1.06,1.06Z"/><path class="cls-3" d="M83.07,176.25,133.79,122c.66-.7-.4-1.77-1.06-1.06L82,175.19c-.66.7.4,1.77,1.06,1.06Z"/><path class="cls-3" d="M65.67,176.25,116.39,122c.66-.7-.4-1.77-1.06-1.06L64.61,175.19c-.66.7.4,1.77,1.06,1.06Z"/></g><text class="cls-4" transform="translate(36.22 153.46)">Service p<tspan class="cls-5" x="56.64" y="0">r</tspan><tspan x="61.89" y="0">ovider 1</tspan></text><ellipse class="cls-1" cx="90.5" cy="294.61" rx="90.5" ry="61"/><g class="cls-2"><path class="cls-3" d="M48.27,322.27,99,268c.66-.7-.4-1.77-1.06-1.06L47.21,321.21c-.66.7.4,1.77,1.06,1.06Z"/><path class="cls-3" d="M83.07,322.27,133.79,268c.66-.7-.4-1.77-1.06-1.06L82,321.21c-.66.7.4,1.77,1.06,1.06Z"/><path class="cls-3" d="M65.67,322.27,116.39,268c.66-.7-.4-1.77-1.06-1.06L64.61,321.21c-.66.7.4,1.77,1.06,1.06Z"/></g><text class="cls-4" transform="translate(34.76 299.49)">Service p<tspan class="cls-5" x="56.64" y="0">r</tspan><tspan x="61.89" y="0">ovider 2</tspan></text><ellipse class="cls-6" cx="882.03" cy="85.26" rx="90.5" ry="61"/><text class="cls-4" transform="translate(836.61 80.7)">Authentic<tspan class="cls-7" x="59.48" y="0">a</tspan><tspan x="66.56" y="0">tion</tspan><tspan x="15.45" y="18.9">p</tspan><tspan class="cls-8" x="23.46" y="18.9">r</tspan><tspan x="28.72" y="18.9">ovider 1</tspan></text><g class="cls-2"><path class="cls-3" d="M839.8,112.92l50.72-54.25c.66-.7-.4-1.77-1.06-1.06l-50.72,54.25c-.66.7.4,1.77,1.06,1.06Z"/><path class="cls-3" d="M874.6,112.92l50.72-54.25c.66-.7-.4-1.77-1.06-1.06l-50.72,54.25c-.66.7.4,1.77,1.06,1.06Z"/><path class="cls-3" d="M857.2,112.92l50.72-54.25c.66-.7-.4-1.77-1.06-1.06l-50.72,54.25c-.66.7.4,1.77,1.06,1.06Z"/></g><ellipse class="cls-6" cx="882.03" cy="228.29" rx="90.5" ry="61"/><text class="cls-4" transform="translate(836.61 223.72)">Authentic<tspan class="cls-7" x="59.48" y="0">a</tspan><tspan x="66.56" y="0">tion</tspan><tspan x="13.99" y="18.9">p</tspan><tspan class="cls-8" x="22" y="18.9">r</tspan><tspan x="27.25" y="18.9">ovider 2</tspan></text><g class="cls-2"><path class="cls-3" d="M839.8,255.95l50.72-54.25c.66-.7-.4-1.77-1.06-1.06l-50.72,54.25c-.66.7.4,1.77,1.06,1.06Z"/><path class="cls-3" d="M874.6,255.95l50.72-54.25c.66-.7-.4-1.77-1.06-1.06l-50.72,54.25c-.66.7.4,1.77,1.06,1.06Z"/><path class="cls-3" d="M857.2,255.95l50.72-54.25c.66-.7-.4-1.77-1.06-1.06l-50.72,54.25c-.66.7.4,1.77,1.06,1.06Z"/></g><rect class="cls-9" x="355.09" y="139.53" width="222" height="177" rx="29.5" ry="29.5"/><path class="cls-3" d="M547.59,140a29,29,0,0,1,29,29V287a29,29,0,0,1-29,29h-163a29,29,0,0,1-29-29V169a29,29,0,0,1,29-29h163m0-1h-163a30,30,0,0,0-30,30V287a30,30,0,0,0,30,30h163a30,30,0,0,0,30-30V169a30,30,0,0,0-30-30Z"/><g class="cls-2"><path class="cls-3" d="M353.43,272l71.81-76.82,10.25-11c.66-.7-.4-1.77-1.06-1.06l-71.81,76.82-10.25,11c-.66.7.4,1.77,1.06,1.06Z"/><path class="cls-3" d="M409.75,272l71.81-76.82,10.25-11c.66-.7-.4-1.77-1.06-1.06l-71.81,76.82-10.25,11c-.66.7.4,1.77,1.06,1.06Z"/><path class="cls-3" d="M381.59,272l71.81-76.82,10.25-11c.66-.7-.4-1.77-1.06-1.06l-71.81,76.82-10.25,11c-.66.7.4,1.77,1.06,1.06Z"/></g><g class="cls-2"><path class="cls-3" d="M441.42,273l71.91-77.8,10.15-11c.65-.71-.4-1.77-1.06-1.06l-71.91,77.8-10.15,11c-.65.71.4,1.77,1.06,1.06Z"/><path class="cls-3" d="M497.74,273l71.91-77.8,10.15-11c.65-.71-.4-1.77-1.06-1.06l-71.91,77.8-10.15,11c-.65.71.4,1.77,1.06,1.06Z"/><path class="cls-3" d="M469.58,273l71.91-77.8,10.15-11c.65-.71-.4-1.77-1.06-1.06l-71.91,77.8-10.15,11c-.65.71.4,1.77,1.06,1.06Z"/></g><text class="cls-10" transform="translate(397.93 221.6) scale(0.99 1)">Xconnect</text><text class="cls-4" transform="translate(411.09 263.18)">identity g<tspan class="cls-7" x="58.53" y="0">a</tspan><tspan class="cls-11" x="65.61" y="0">t</tspan><tspan class="cls-12" x="70.94" y="0">e</tspan><tspan class="cls-13" x="78.11" y="0">w</tspan><tspan class="cls-14" x="87.92" y="0">ay</tspan></text><ellipse class="cls-15" cx="254.63" cy="227.53" rx="54.98" ry="37.06"/><g class="cls-2"><path class="cls-3" d="M229.18,244.54l30.81-33c.66-.7-.4-1.77-1.06-1.06l-30.81,33c-.66.7.4,1.77,1.06,1.06Z"/><path class="cls-3" d="M250.32,244.54l30.81-33c.66-.7-.4-1.77-1.06-1.06l-30.81,33c-.66.7.4,1.77,1.06,1.06Z"/><path class="cls-3" d="M239.75,244.54l30.81-33c.66-.7-.4-1.77-1.06-1.06l-30.81,33c-.66.7.4,1.77,1.06,1.06Z"/></g><text class="cls-16" transform="translate(222.4 223.98)">Standa<tspan class="cls-17" x="34.34" y="0">r</tspan><tspan x="38.42" y="0">dized</tspan><tspan x="8.1" y="14.67">in</tspan><tspan class="cls-18" x="17.08" y="14.67">t</tspan><tspan class="cls-19" x="21.22" y="14.67">erfaces</tspan></text><ellipse class="cls-15" cx="677.88" cy="227.53" rx="54.98" ry="37.06"/><g class="cls-2"><path class="cls-3" d="M652.44,244.54l30.81-33c.66-.7-.4-1.77-1.06-1.06l-30.81,33c-.66.7.4,1.77,1.06,1.06Z"/><path class="cls-3" d="M673.58,244.54l30.81-33c.66-.7-.4-1.77-1.06-1.06l-30.81,33c-.66.7.4,1.77,1.06,1.06Z"/><path class="cls-3" d="M663,244.54l30.81-33c.66-.7-.4-1.77-1.06-1.06l-30.81,33c-.66.7.4,1.77,1.06,1.06Z"/></g><text class="cls-16" transform="translate(650.79 223.98)">P<tspan class="cls-17" x="6.21" y="0">r</tspan><tspan class="cls-19" x="10.29" y="0">oprietary</tspan><tspan x="2.97" y="14.67">in</tspan><tspan class="cls-18" x="11.94" y="14.67">t</tspan><tspan class="cls-19" x="16.08" y="14.67">erfaces</tspan></text><line class="cls-20" x1="181" y1="180.03" x2="199.65" y2="190.47"/><line class="cls-20" x1="180.84" y1="269.5" x2="199.81" y2="259.67"/><line class="cls-20" x1="314.09" y1="228.03" x2="345.09" y2="228.03"/><line class="cls-20" x1="585.09" y1="228.03" x2="616.09" y2="228.03"/><rect class="cls-21" x="783.68" y="0.38" width="196.42" height="456" rx="12" ry="12"/><line class="cls-20" x1="740.57" y1="228.03" x2="771.57" y2="228.03"/><ellipse class="cls-22" cx="882.03" cy="371.31" rx="90.5" ry="61"/><g class="cls-2"><path class="cls-3" d="M839.8,399l50.72-54.25c.66-.7-.4-1.77-1.06-1.06l-50.72,54.25c-.66.7.4,1.77,1.06,1.06Z"/><path class="cls-3" d="M874.6,399l50.72-54.25c.66-.7-.4-1.77-1.06-1.06l-50.72,54.25c-.66.7.4,1.77,1.06,1.06Z"/><path class="cls-3" d="M857.2,399l50.72-54.25c.66-.7-.4-1.77-1.06-1.06l-50.72,54.25c-.66.7.4,1.77,1.06,1.06Z"/></g><text class="cls-4" transform="translate(867.77 366.74)">D<tspan class="cls-7" x="8.71" y="0">a</tspan><tspan x="15.79" y="0">ta</tspan><tspan x="-11.65" y="18.9">p</tspan><tspan class="cls-8" x="-3.64" y="18.9">r</tspan><tspan x="1.61" y="18.9">ovider</tspan></text></g></g></svg>